<svg aria-hidden="true" style="position: absolute; width: 0; height: 0; overflow: hidden;" version="1.1" xmlns="http://www.w3.org/2000/svg" xmlns:xlink="http://www.w3.org/1999/xlink">
<defs>
<symbol id="instagram" viewBox="0 0 40 40">
<path d="M15.6027 9.39776C16.7405 9.34598 17.1041 9.33331 20.001 9.33331H19.9977C22.8955 9.33331 23.2577 9.34598 24.3955 9.39776C25.5311 9.44976 26.3066 9.62954 26.9866 9.89332C27.6889 10.1655 28.2822 10.53 28.8755 11.1233C29.4689 11.7162 29.8333 12.3113 30.1067 13.0129C30.3689 13.6911 30.5489 14.4663 30.6022 15.6018C30.6533 16.7396 30.6667 17.1032 30.6667 20.0001C30.6667 22.897 30.6533 23.2597 30.6022 24.3975C30.5489 25.5326 30.3689 26.3079 30.1067 26.9864C29.8333 27.6877 29.4689 28.2828 28.8755 28.8757C28.2829 29.4691 27.6886 29.8344 26.9873 30.1069C26.3086 30.3706 25.5326 30.5504 24.3971 30.6024C23.2593 30.6542 22.8968 30.6669 19.9997 30.6669C17.103 30.6669 16.7396 30.6542 15.6019 30.6024C14.4665 30.5504 13.6912 30.3706 13.0125 30.1069C12.3114 29.8344 11.7163 29.4691 11.1236 28.8757C10.5305 28.2828 10.166 27.6877 9.89335 26.9862C9.62979 26.3079 9.45001 25.5328 9.39779 24.3972C9.34623 23.2595 9.33334 22.897 9.33334 20.0001C9.33334 17.1032 9.34668 16.7394 9.39757 15.6016C9.44868 14.4665 9.62868 13.6911 9.89313 13.0127C10.1665 12.3113 10.5309 11.7162 11.1243 11.1233C11.7171 10.5302 12.3123 10.1658 13.0138 9.89332C13.6921 9.62954 14.4672 9.44976 15.6027 9.39776ZM19.6455 11.2555C19.4298 11.2554 19.23 11.2553 19.0442 11.2556V11.2529C17.0561 11.2551 16.6748 11.2685 15.6908 11.3129C14.6508 11.3607 14.0861 11.534 13.7101 11.6807C13.2123 11.8745 12.8568 12.1056 12.4834 12.4789C12.1101 12.8523 11.8785 13.2078 11.6852 13.7056C11.5392 14.0816 11.3654 14.6461 11.3179 15.6861C11.2667 16.8105 11.2565 17.1465 11.2565 19.995C11.2565 22.8435 11.2667 23.1813 11.3179 24.3057C11.3652 25.3457 11.5392 25.9102 11.6852 26.2857C11.879 26.7837 12.1101 27.1384 12.4834 27.5117C12.8568 27.8851 13.2123 28.1162 13.7101 28.3095C14.0863 28.4555 14.6508 28.6293 15.6908 28.6773C16.8152 28.7284 17.1528 28.7395 20.0011 28.7395C22.8491 28.7395 23.1869 28.7284 24.3113 28.6773C25.3513 28.6298 25.9162 28.4564 26.2918 28.3098C26.7898 28.1164 27.1442 27.8853 27.5176 27.512C27.8909 27.1389 28.1225 26.7844 28.3158 26.2866C28.4618 25.9111 28.6356 25.3466 28.6831 24.3066C28.7343 23.1821 28.7454 22.8444 28.7454 19.9977C28.7454 17.151 28.7343 16.8132 28.6831 15.6887C28.6358 14.6487 28.4618 14.0843 28.3158 13.7087C28.122 13.2109 27.8909 12.8554 27.5176 12.482C27.1445 12.1087 26.7896 11.8776 26.2918 11.6842C25.9158 11.5382 25.3513 11.3645 24.3113 11.3169C23.1866 11.2658 22.8491 11.2556 20.0011 11.2556L19.6455 11.2555ZM14.5232 19.9999C14.5232 16.9748 16.9759 14.5221 20.001 14.5221C23.0261 14.5222 25.478 16.9749 25.478 19.9999C25.478 23.0251 23.0262 25.4767 20.001 25.4767C16.9759 25.4767 14.5232 23.0251 14.5232 19.9999ZM23.5566 20.0002C23.5566 18.0364 21.9646 16.4446 20.001 16.4446C18.0372 16.4446 16.4454 18.0364 16.4454 20.0002C16.4454 21.9638 18.0372 23.5558 20.001 23.5558C21.9646 23.5558 23.5566 21.9638 23.5566 20.0002ZM24.415 14.3064C24.415 13.5995 24.9883 13.0268 25.695 13.0268V13.0263C26.4017 13.0263 26.975 13.5997 26.975 14.3064C26.975 15.013 26.4017 15.5864 25.695 15.5864C24.9883 15.5864 24.415 15.013 24.415 14.3064Z" />
</symbol>
<symbol id="facebook" viewBox="0 0 40 40">
<path d="M22.0846 31.7596V20.8785H25.0883L25.4863 17.1288H22.0846L22.0897 15.2521C22.0897 14.2741 22.1827 13.7501 23.5873 13.7501H25.4651V10H22.461C18.8526 10 17.5826 11.819 17.5826 14.878V17.1293H15.3333V20.8789H17.5826V31.7596H22.0846Z" />
</symbol>
<symbol id="telegram" viewBox="0 0 40 40">
<path d="M16.6736 24.0686L16.6732 24.0683L16.6736 24.0678L16.6737 24.0677L16.6737 24.0678L25.9473 15.6991C26.3543 15.3379 25.8584 15.1617 25.3181 15.4894L13.8726 22.7102L8.92876 21.1671C7.86111 20.8402 7.85344 20.1066 9.16846 19.5791L28.4335 12.1506C29.3133 11.7512 30.1626 12.362 29.8267 13.7087L26.5459 29.1692C26.3168 30.2678 25.6529 30.5306 24.7332 30.0231L19.7355 26.3307L17.3333 28.6666C17.3257 28.6739 17.3182 28.6813 17.3107 28.6886C17.042 28.9501 16.8197 29.1666 16.3333 29.1666L16.6736 24.0686Z" />
</symbol>
<symbol id="logo" viewBox="0 0 125 75">
<path d="M31.8328 29.4882H88.3833V21.5069H31.8328V8.04223H88.3833V0.0609131H27.478C25.4539 0.0609131 23.7979 1.70592 23.7979 3.71648V43.0138H31.8328V29.4882Z" fill="#44C697"/>
<path d="M97.5835 0H93.1674V42.9529H101.202V3.65556C101.264 1.645 99.6075 0 97.5835 0Z" fill="#1E2E36"/>
<path d="M107.581 27.9651V49.2892H17.4191V27.9651H4.60016C2.0241 27.9651 6.10352e-05 30.0366 6.10352e-05 32.5345V44.6588C6.10352e-05 47.2177 2.08544 49.2283 4.60016 49.2283H7.54422L8.83225 64.2161V75H12.1443L16.0084 64.2161H108.992L112.856 75H116.168V64.2161L117.456 49.2283H120.4C122.976 49.2283 125 47.1568 125 44.6588V32.5345C125 29.9756 122.915 27.9651 120.4 27.9651H107.581Z" fill="#1E2E36"/>
</symbol>
<symbol id="phone" viewBox="0 0 24 24">
<path d="M17 2H7C5.89543 2 5 2.89543 5 4V20C5 21.1046 5.89543 22 7 22H17C18.1046 22 19 21.1046 19 20V4C19 2.89543 18.1046 2 17 2Z" stroke="#1E2E36" stroke-width="1.5" stroke-linecap="round" stroke-linejoin="round"/>
<path d="M12 18H12.01" stroke="#1E2E36" stroke-width="1.5" stroke-linecap="round" stroke-linejoin="round"/>
</symbol>
<symbol id="call" viewBox="0 0 24 24" fill="none">
<path d="M17 2H7C5.89543 2 5 2.89543 5 4V20C5 21.1046 5.89543 22 7 22H17C18.1046 22 19 21.1046 19 20V4C19 2.89543 18.1046 2 17 2Z" stroke-width="1.5" stroke-linecap="round" stroke-linejoin="round"/>
<path d="M12 18H12.01" stroke-width="1.5" stroke-linecap="round" stroke-linejoin="round"/>
</symbol>

<symbol id="cart" viewBox="0 0 30 31">
<path d="M11.25 26.4375C11.0774 26.4375 10.9375 26.5774 10.9375 26.75C10.9375 26.9226 11.0774 27.0625 11.25 27.0625C11.4226 27.0625 11.5625 26.9226 11.5625 26.75C11.5625 26.5774 11.4226 26.4375 11.25 26.4375ZM9.0625 26.75C9.0625 25.5419 10.0419 24.5625 11.25 24.5625C12.4581 24.5625 13.4375 25.5419 13.4375 26.75C13.4375 27.9581 12.4581 28.9375 11.25 28.9375C10.0419 28.9375 9.0625 27.9581 9.0625 26.75Z" />
<path d="M25 26.4375C24.8274 26.4375 24.6875 26.5774 24.6875 26.75C24.6875 26.9226 24.8274 27.0625 25 27.0625C25.1726 27.0625 25.3125 26.9226 25.3125 26.75C25.3125 26.5774 25.1726 26.4375 25 26.4375ZM22.8125 26.75C22.8125 25.5419 23.7919 24.5625 25 24.5625C26.2081 24.5625 27.1875 25.5419 27.1875 26.75C27.1875 27.9581 26.2081 28.9375 25 28.9375C23.7919 28.9375 22.8125 27.9581 22.8125 26.75Z" />
<path d="M0.3125 1.75C0.3125 1.23223 0.732233 0.8125 1.25 0.8125H6.25C6.69684 0.8125 7.08158 1.12786 7.16926 1.56601L8.26939 7.0625H28.75C29.0294 7.0625 29.2943 7.18713 29.4724 7.4024C29.6505 7.61768 29.7233 7.90116 29.6709 8.17563L27.6696 18.6701C27.5124 19.4615 27.0819 20.1723 26.4535 20.6781C25.8275 21.182 25.0449 21.4506 24.2418 21.4375H12.1083C11.3051 21.4506 10.5225 21.182 9.89656 20.6781C9.26841 20.1725 8.83804 19.4621 8.68069 18.6713L6.59069 8.2291C6.5834 8.20006 6.57746 8.17049 6.57295 8.14044L5.48155 2.6875H1.25C0.732233 2.6875 0.3125 2.26776 0.3125 1.75ZM8.64466 8.9375L10.5195 18.3049C10.591 18.6645 10.7867 18.9876 11.0723 19.2176C11.358 19.4475 11.7154 19.5698 12.082 19.5626L12.1 19.5625H24.25L24.268 19.5626C24.6346 19.5698 24.992 19.4475 25.2778 19.2176C25.5625 18.9883 25.7579 18.6664 25.8299 18.3079L25.8305 18.3049L27.6169 8.9375H8.64466Z" />
</symbol>

<symbol id="kitchen" viewBox="0 0 32 32">
<path d="M21.692 29.162h-11.384c-0.207 0-0.375-0.168-0.375-0.375v-8.719c0-0.207 0.168-0.375 0.375-0.375h11.384c0.207 0 0.375 0.168 0.375 0.375v8.718c0 0.207-0.168 0.375-0.375 0.375zM10.683 28.412h10.634v-7.968h-10.634v7.968z"></path>
<path d="M21.692 30.766h-11.384c-0.207 0-0.375-0.168-0.375-0.375v0-1.605c0-0.207 0.168-0.375 0.375-0.375h11.384c0.207 0 0.375 0.168 0.375 0.375v1.605c0 0.207-0.168 0.375-0.375 0.375zM10.683 30.016h10.634v-0.854h-10.634v0.854zM21.692 20.444h-11.384c-0.207 0-0.375-0.168-0.375-0.375v0-3.697c0-0.207 0.168-0.375 0.375-0.375h11.384c0.207 0 0.375 0.168 0.375 0.375v3.697c0 0.207-0.168 0.375-0.375 0.375zM10.683 19.693h10.634v-2.947h-10.634v2.947z"></path>
<path d="M16 19.436c-0.671 0-1.215-0.544-1.215-1.215s0.544-1.215 1.215-1.215v0c0.671 0 1.215 0.544 1.215 1.215s-0.544 1.215-1.215 1.215v0zM16 17.755c-0.257 0-0.465 0.208-0.465 0.465s0.208 0.465 0.465 0.465v0c0.257 0 0.465-0.208 0.465-0.465s-0.208-0.465-0.465-0.465v0zM19.157 19.436c-0.671 0-1.215-0.544-1.215-1.215s0.544-1.215 1.215-1.215v0c0.671 0 1.215 0.544 1.215 1.215s-0.544 1.215-1.215 1.215v0zM19.157 17.755c-0.257 0-0.465 0.208-0.465 0.465s0.208 0.465 0.465 0.465v0c0.257 0 0.465-0.208 0.465-0.465s-0.208-0.465-0.465-0.465v0zM12.843 19.436c-0.671 0-1.215-0.544-1.215-1.215s0.544-1.215 1.215-1.215v0c0.671 0 1.215 0.544 1.215 1.215s-0.544 1.215-1.215 1.215v0zM12.843 17.755c-0.257 0-0.465 0.208-0.465 0.465s0.208 0.465 0.465 0.465v0c0.257 0 0.465-0.208 0.465-0.465s-0.208-0.465-0.465-0.465v0zM19.491 22.636h-6.981c-0.487 0-0.882-0.395-0.882-0.882s0.395-0.882 0.882-0.882h6.981c0 0 0 0 0 0 0.487 0 0.882 0.395 0.882 0.882s-0.395 0.882-0.882 0.882h-0.001zM12.509 21.622c-0.073 0-0.132 0.059-0.132 0.132s0.059 0.132 0.132 0.132v0h6.981c0.073 0 0.132-0.059 0.132-0.132s-0.059-0.132-0.132-0.132v0h-6.981z"></path>
<path d="M19.157 27.964h-6.315c-0.207 0-0.375-0.168-0.375-0.375v0-5.329c0-0.207 0.168-0.375 0.375-0.375h6.315c0.207 0 0.375 0.168 0.375 0.375v5.329c0 0.207-0.168 0.375-0.375 0.375zM13.218 27.214h5.565v-4.579h-5.565v4.579zM13.501 16.747c-0.207 0-0.375-0.168-0.375-0.375v0-0.931c0-0.207 0.168-0.375 0.375-0.375s0.375 0.168 0.375 0.375v0 0.931c0 0.207-0.168 0.375-0.375 0.375zM15.279 16.747c-0.207 0-0.375-0.168-0.375-0.375v0-0.556h-0.5c-0.207 0-0.375-0.168-0.375-0.375s0.168-0.375 0.375-0.375h0.875c0.207 0 0.375 0.168 0.375 0.375v0.931c0 0.207-0.168 0.375-0.375 0.375zM11.724 16.747c-0.207 0-0.375-0.168-0.375-0.375v0-0.931c0-0.207 0.168-0.375 0.375-0.375h0.875c0.207 0 0.375 0.168 0.375 0.375s-0.168 0.375-0.375 0.375h-0.5v0.556c0 0.207-0.168 0.375-0.375 0.375zM18.499 16.747c-0.207 0-0.375-0.168-0.375-0.375v0-0.931c0-0.207 0.168-0.375 0.375-0.375s0.375 0.168 0.375 0.375v0 0.931c0 0.207-0.168 0.375-0.375 0.375zM16.721 16.747c-0.207 0-0.375-0.168-0.375-0.375v0-0.931c0-0.207 0.168-0.375 0.375-0.375h0.875c0.207 0 0.375 0.168 0.375 0.375s-0.168 0.375-0.375 0.375h-0.5v0.556c0 0.207-0.168 0.375-0.375 0.375zM20.276 16.747c-0.207-0-0.375-0.168-0.375-0.375v0-0.556h-0.5c-0.207 0-0.375-0.168-0.375-0.375s0.168-0.375 0.375-0.375h0.875c0.207 0 0.375 0.168 0.375 0.375v0.931c0 0.207-0.168 0.375-0.375 0.375zM23.505 18.113h-0.671c-0.207 0-0.375-0.168-0.375-0.375s0.168-0.375 0.375-0.375h0.671c0.207 0 0.375 0.168 0.375 0.375s-0.168 0.375-0.375 0.375v0z"></path>
<path d="M24.646 30.766h-2.954c-0.207 0-0.375-0.168-0.375-0.375v0-14.019c0-0.207 0.168-0.375 0.375-0.375h2.954c0.207 0 0.375 0.168 0.375 0.375v14.019c0 0.207-0.168 0.375-0.375 0.375zM22.067 30.016h2.204v-13.269h-2.204v13.269z"></path>
<path d="M31.625 23.757h-6.979c-0.207 0-0.375-0.168-0.375-0.375v0-7.010c0-0.207 0.168-0.375 0.375-0.375h6.979c0.207 0 0.375 0.168 0.375 0.375v7.010c0 0.207-0.168 0.375-0.375 0.375zM25.021 23.007h6.229v-6.26h-6.229v6.26z"></path>
<path d="M29.035 18.113h-1.799c-0.207 0-0.375-0.168-0.375-0.375s0.168-0.375 0.375-0.375h1.798c0.207 0 0.375 0.168 0.375 0.375s-0.168 0.375-0.375 0.375v0zM6.241 18.113h-1.798c-0.207 0-0.375-0.168-0.375-0.375s0.168-0.375 0.375-0.375h1.798c0.207 0 0.375 0.168 0.375 0.375s-0.168 0.375-0.375 0.375v0zM31.625 30.766h-6.979c-0.207 0-0.375-0.168-0.375-0.375v0-7.010c0-0.207 0.168-0.375 0.375-0.375h6.979c0.207 0 0.375 0.168 0.375 0.375v7.010c0 0.207-0.168 0.375-0.375 0.375zM25.021 30.016h6.229v-6.259h-6.229v6.259z"></path>
<path d="M29.035 25.122h-1.799c-0.207 0-0.375-0.168-0.375-0.375s0.168-0.375 0.375-0.375h1.798c0.207 0 0.375 0.168 0.375 0.375s-0.168 0.375-0.375 0.375v0zM5.341 30.766h-4.966c-0.207 0-0.375-0.168-0.375-0.375v0-10.323c0-0.207 0.168-0.375 0.375-0.375h4.966c0.207 0 0.375 0.168 0.375 0.375v10.323c0 0.207-0.168 0.375-0.375 0.375zM0.75 30.016h4.216v-9.572h-4.216v9.572z"></path>
<path d="M10.308 30.766h-4.966c-0.207 0-0.375-0.168-0.375-0.375v0-10.323c0-0.207 0.168-0.375 0.375-0.375h4.966c0.207 0 0.375 0.168 0.375 0.375v10.323c0 0.207-0.168 0.375-0.375 0.375zM5.716 30.016h4.216v-9.572h-4.216v9.572z"></path>
<path d="M6.527 26.229c-0.207 0-0.375-0.168-0.375-0.375v0-1.248c0.006-0.202 0.172-0.364 0.375-0.364s0.369 0.162 0.375 0.364v1.249c0 0.207-0.168 0.375-0.375 0.375zM4.156 26.229c-0.207-0-0.375-0.168-0.375-0.375v0-1.248c0.006-0.202 0.172-0.364 0.375-0.364s0.369 0.162 0.375 0.364v1.249c0 0.207-0.168 0.375-0.375 0.375zM10.308 20.444h-9.933c-0.207 0-0.375-0.168-0.375-0.375v0-3.697c0-0.207 0.168-0.375 0.375-0.375h9.933c0.207 0 0.375 0.168 0.375 0.375v3.697c0 0.207-0.168 0.375-0.375 0.375zM0.75 19.693h9.183v-2.947h-9.183v2.947zM21.269 8.889h-10.539c-0.44-0.001-0.797-0.357-0.798-0.798v-1.077c0-0.44 0.357-0.797 0.798-0.798h10.539c0.44 0.001 0.797 0.357 0.798 0.798v1.077c-0.001 0.44-0.357 0.797-0.798 0.798h-0zM10.731 6.966c0 0 0 0 0 0-0.026 0-0.048 0.021-0.048 0.048v1.077c0 0.027 0.021 0.048 0.048 0.048v0h10.539c0.026 0 0.048-0.021 0.048-0.048v0-1.076c0-0.027-0.021-0.048-0.048-0.048v0h-10.539z"></path>
<path d="M20.488 6.966h-8.975c-0.436-0-0.79-0.354-0.79-0.79 0-0.252 0.118-0.476 0.301-0.621l0.002-0.001 0.288-0.226c1.108-0.867 1.813-2.204 1.813-3.706 0-0.005 0-0.010-0-0.014v0.001c0-0.207 0.168-0.375 0.375-0.375h4.998c0.207 0 0.375 0.168 0.375 0.375 0 0.004-0 0.009-0 0.014 0 1.502 0.705 2.838 1.802 3.697l0.010 0.008 0.288 0.226c0.185 0.146 0.303 0.37 0.303 0.622 0 0.436-0.354 0.79-0.79 0.79v0zM13.864 1.984c-0.108 1.603-0.897 3.003-2.076 3.926l-0.012 0.009-0.288 0.225c-0.009 0.007-0.015 0.019-0.015 0.032 0 0.022 0.018 0.040 0.040 0.040h8.975c0.022-0 0.040-0.018 0.040-0.040 0-0.013-0.006-0.024-0.015-0.031l-0-0-0.288-0.226c-1.192-0.932-1.98-2.332-2.088-3.918l-0.001-0.017h-4.272zM30.464 8.889h-5.967c-0.519 0-0.94-0.421-0.94-0.94s0.421-0.94 0.94-0.94h5.967c0.519 0 0.94 0.421 0.94 0.94s-0.421 0.94-0.94 0.94v0zM24.497 7.759c-0.105 0-0.19 0.085-0.19 0.19s0.085 0.19 0.19 0.19v0h5.967c0.105 0 0.19-0.085 0.19-0.19s-0.085-0.19-0.19-0.19v0h-5.967zM7.503 8.889h-5.967c-0.519 0-0.94-0.421-0.94-0.94s0.421-0.94 0.94-0.94h5.967c0.519 0 0.94 0.421 0.94 0.94s-0.421 0.94-0.94 0.94v0zM1.536 7.759c-0.105 0-0.19 0.085-0.19 0.19s0.085 0.19 0.19 0.19v0h5.967c0.105 0 0.19-0.085 0.19-0.19s-0.085-0.19-0.19-0.19v0h-5.967z"></path>
<path d="M6.905 7.759h-1.525c-0.207-0-0.375-0.168-0.375-0.375v0-1.289c0-0.207 0.168-0.375 0.375-0.375h1.525c0.207 0 0.375 0.168 0.375 0.375v1.29c0 0.207-0.168 0.375-0.375 0.375zM5.754 7.009h0.776v-0.539h-0.776v0.539z"></path>
<path d="M7.264 6.47h-2.244c-0.202-0.006-0.364-0.172-0.364-0.375s0.162-0.369 0.364-0.375h2.245c0.202 0.006 0.364 0.172 0.364 0.375s-0.162 0.369-0.364 0.375h-0.001zM3.66 7.759h-1.526c-0.207-0-0.374-0.168-0.374-0.375 0 0 0 0 0 0v0-1.289c0-0.207 0.168-0.375 0.375-0.375h1.526c0.207 0 0.375 0.168 0.375 0.375v1.29c0 0.207-0.168 0.375-0.375 0.375zM2.509 7.009h0.776v-0.539h-0.776v0.539z"></path>
<path d="M4.019 6.47h-2.244c-0.202-0.006-0.364-0.172-0.364-0.375s0.162-0.369 0.364-0.375h2.245c0.003-0 0.007-0 0.011-0 0.207 0 0.375 0.168 0.375 0.375s-0.168 0.375-0.375 0.375c-0.004 0-0.008-0-0.011-0h0.001zM6.905 6.47h-1.525c-0.207-0-0.375-0.168-0.375-0.375v0-1.289c0-0.207 0.168-0.375 0.375-0.375h1.525c0.207 0 0.375 0.168 0.375 0.375v1.29c0 0.207-0.168 0.375-0.375 0.375zM5.754 5.72h0.776v-0.539h-0.776v0.539z"></path>
<path d="M7.264 5.181h-2.244c-0.207 0-0.375-0.168-0.375-0.375s0.168-0.375 0.375-0.375h2.244c0.202 0.006 0.364 0.172 0.364 0.375s-0.162 0.369-0.364 0.375h-0.001zM3.66 6.47h-1.526c-0.207-0-0.374-0.168-0.374-0.375 0 0 0 0 0 0v0-1.289c0-0.207 0.168-0.375 0.375-0.375h1.526c0.207 0 0.375 0.168 0.375 0.375v1.29c0 0.207-0.168 0.375-0.375 0.375zM2.509 5.72h0.776v-0.539h-0.776v0.539z"></path>
<path d="M4.019 5.181h-2.244c-0.207 0-0.375-0.168-0.375-0.375s0.168-0.375 0.375-0.375h2.244c0.003-0 0.007-0 0.011-0 0.207 0 0.375 0.168 0.375 0.375s-0.168 0.375-0.375 0.375c-0.004 0-0.008-0-0.011-0h0.001zM27.48 7.759c-1.337-0-2.42-1.084-2.42-2.42 0-0.477 0.138-0.922 0.377-1.297l-0.006 0.010c0.069-0.109 0.189-0.175 0.317-0.175h3.465c0.129 0 0.248 0.066 0.317 0.175 0.233 0.365 0.371 0.81 0.371 1.287 0 1.337-1.083 2.42-2.42 2.42h-0zM25.97 4.626c-0.101 0.209-0.16 0.454-0.16 0.712 0 0.923 0.748 1.67 1.67 1.67s1.67-0.748 1.67-1.67c0-0.259-0.059-0.504-0.164-0.722l0.004 0.010h-3.022z"></path>
<path d="M27.445 4.626c-0.207 0-0.375-0.168-0.375-0.375v0-2.413c0-0.207 0.168-0.375 0.375-0.375s0.375 0.168 0.375 0.375v0 2.413c0 0.207-0.168 0.375-0.375 0.375z"></path>
<path d="M27.445 4.626c-0.207-0-0.375-0.168-0.375-0.375 0-0.103 0.042-0.197 0.11-0.265v0l1.298-1.298c0.067-0.064 0.158-0.104 0.259-0.104 0.207 0 0.375 0.168 0.375 0.375 0 0.1-0.040 0.192-0.104 0.259l0-0-1.298 1.298c-0.070 0.070-0.165 0.11-0.265 0.11z"></path>
<path d="M27.445 4.626c-0.099 0-0.195-0.039-0.265-0.11l-1.298-1.298c-0.070-0.068-0.113-0.163-0.113-0.268 0-0.207 0.168-0.375 0.375-0.375 0.102 0 0.195 0.041 0.262 0.107l1.303 1.303c0.068 0.068 0.11 0.162 0.11 0.265 0 0.207-0.168 0.375-0.375 0.375-0 0-0 0-0 0v0zM19.474 15.816h-1.829c-1.037-0.001-1.877-0.841-1.878-1.878v-0.882c0-0.207 0.168-0.375 0.375-0.375h4.836c0.207 0 0.375 0.168 0.375 0.375v0.882c-0.001 1.037-0.841 1.877-1.878 1.878h-0zM16.517 13.431v0.507c0.001 0.623 0.505 1.128 1.128 1.129h1.829c0.623-0.001 1.128-0.506 1.129-1.129v-0.507h-4.086z"></path>
<path d="M21.692 14.092h-0.715c-0.202-0.006-0.364-0.172-0.364-0.375s0.162-0.369 0.364-0.375h0.715c0.003-0 0.007-0 0.011-0 0.207 0 0.375 0.168 0.375 0.375s-0.168 0.375-0.375 0.375c-0.004 0-0.008-0-0.012-0h0.001zM16.020 14.092h-0.714c-0.202-0.006-0.364-0.172-0.364-0.375s0.162-0.369 0.364-0.375h0.715c0.202 0.006 0.364 0.172 0.364 0.375s-0.162 0.369-0.364 0.375h-0.001z"></path>
<path d="M20.978 13.431h-4.836c-0 0-0 0-0 0-0.207 0-0.375-0.168-0.375-0.375 0-0.079 0.025-0.153 0.067-0.214l-0.001 0.001c0.525-0.763 1.57-1.237 2.727-1.237s2.202 0.474 2.727 1.237c0.041 0.059 0.066 0.133 0.066 0.212 0 0.207-0.168 0.375-0.375 0.375-0 0-0 0-0 0v0zM17.149 12.681h2.822c-0.412-0.205-0.897-0.325-1.411-0.325s-0.999 0.12-1.43 0.334l0.019-0.008z"></path>
<path d="M18.102 12.385c-0.092 0-0.181-0.034-0.249-0.095-0.22-0.196-0.358-0.48-0.358-0.797 0-0.588 0.477-1.065 1.065-1.065s1.065 0.477 1.065 1.065c0 0.316-0.138 0.601-0.357 0.796l-0.001 0.001c-0.067 0.063-0.157 0.102-0.257 0.102-0.207 0-0.375-0.168-0.375-0.375 0-0.115 0.052-0.218 0.133-0.287l0.001-0c0.065-0.058 0.106-0.142 0.106-0.236 0-0.174-0.141-0.315-0.315-0.315s-0.315 0.141-0.315 0.315c0 0.094 0.041 0.178 0.106 0.236l0 0c0.077 0.069 0.126 0.169 0.126 0.28 0 0.207-0.168 0.375-0.375 0.375-0 0-0 0-0 0v0zM4.449 16.747h-1.584c-0.207 0-0.375-0.168-0.375-0.375v0-4.028c0-0.207 0.168-0.375 0.375-0.375h1.584c0.207 0 0.375 0.168 0.375 0.375v4.028c0 0.207-0.168 0.375-0.375 0.375zM3.24 15.997h0.834v-3.278h-0.834v3.278z"></path>
<path d="M2.865 16.747h-1.584c-0.207-0-0.375-0.168-0.375-0.375v0-4.028c0-0.207 0.168-0.375 0.375-0.375h1.584c0.207 0 0.375 0.168 0.375 0.375v4.028c0 0.207-0.168 0.375-0.375 0.375zM1.656 15.997h0.834v-3.278h-0.834v3.278zM7.928 16.747h-0.707c-0.715-0.001-1.295-0.581-1.296-1.296v-1.315c0-0.207 0.168-0.375 0.375-0.375h2.55c0.207 0 0.375 0.168 0.375 0.375v1.315c-0.001 0.715-0.581 1.295-1.296 1.296h-0zM6.675 14.511v0.94c0 0.302 0.245 0.546 0.546 0.546h0.707c0.302-0 0.546-0.245 0.546-0.546v-0.94h-1.8z"></path>
<path d="M9.068 14.511h-2.988c-0.391-0.001-0.708-0.317-0.708-0.708v-0.389c0.001-0.391 0.317-0.708 0.708-0.708h2.989c0.391 0.001 0.708 0.317 0.708 0.708v0.389c-0 0.391-0.317 0.708-0.708 0.708h-0zM6.122 13.761h2.905v-0.306h-2.905v0.306zM24.95 16.747h-1.931c-0.207 0-0.375-0.168-0.375-0.375v0-2.639c0-0.207 0.168-0.375 0.375-0.375h1.931c0.207 0 0.375 0.168 0.375 0.375v2.639c0 0.207-0.168 0.375-0.375 0.375zM23.395 15.997h1.181v-1.889h-1.181v1.889z"></path>
<path d="M24.95 14.108h-1.931c-0.207 0-0.375-0.168-0.375-0.375v-1.153c0-0.207 0.168-0.375 0.375-0.375h1.931c0.207 0 0.375 0.168 0.375 0.375v1.153c0 0.207-0.168 0.375-0.375 0.375zM23.395 13.358h1.181v-0.403h-1.181v0.403zM29.58 15.478c-0.613 0-1.092-0.589-1.092-1.342s0.48-1.343 1.092-1.343c0.613 0 1.092 0.59 1.092 1.343s-0.48 1.343-1.092 1.343zM29.58 13.543c-0.162 0-0.342 0.253-0.342 0.593s0.181 0.593 0.342 0.593c0.162 0 0.342-0.253 0.342-0.593s-0.181-0.593-0.342-0.593z"></path>
<path d="M29.58 13.536c-0.175 0-0.326-0.121-0.365-0.291l-0.573-2.5c-0.016-0.065-0.024-0.139-0.024-0.216 0-0.532 0.431-0.963 0.963-0.963s0.963 0.431 0.963 0.963c0 0.076-0.009 0.151-0.026 0.222l0.001-0.007-0.573 2.5c-0.039 0.171-0.191 0.291-0.365 0.291zM29.58 10.316c-0.118 0-0.213 0.095-0.213 0.213 0 0.017 0.002 0.033 0.006 0.049l-0-0.001 0.208 0.906 0.208-0.906c0.003-0.014 0.005-0.031 0.005-0.047 0-0.118-0.095-0.213-0.213-0.213-0 0-0 0-0 0v0zM26.883 13.536c-0.175 0-0.326-0.121-0.365-0.291l-0.573-2.5c-0.016-0.065-0.024-0.139-0.024-0.216 0-0.532 0.431-0.963 0.963-0.963s0.963 0.431 0.963 0.963c0 0.076-0.009 0.151-0.026 0.222l0.001-0.007-0.573 2.5c-0.039 0.171-0.191 0.291-0.365 0.291zM26.883 10.316c-0.118 0-0.213 0.095-0.213 0.213 0 0.017 0.002 0.033 0.006 0.049l-0-0.001 0.208 0.906 0.208-0.906c0.003-0.014 0.005-0.031 0.005-0.048 0-0.118-0.095-0.213-0.213-0.213-0 0-0 0-0 0v0z"></path>
<path d="M27.744 14.748h-1.723c-0.188-0-0.344-0.139-0.371-0.32l-0-0.002c-0.011-0.067-0.017-0.144-0.017-0.223 0-0.376 0.137-0.72 0.365-0.984l-0.002 0.002c0.242-0.279 0.565-0.44 0.886-0.44s0.644 0.16 0.886 0.44c0.226 0.262 0.363 0.606 0.363 0.982 0 0.079-0.006 0.156-0.018 0.232l0.001-0.008c-0.027 0.183-0.183 0.322-0.371 0.322v0zM26.411 13.998h0.942c-0.030-0.11-0.083-0.206-0.152-0.286l0.001 0.001c-0.095-0.11-0.221-0.181-0.32-0.181s-0.224 0.071-0.319 0.181c-0.069 0.079-0.121 0.175-0.15 0.28l-0.001 0.005z"></path>
</symbol>
<symbol id="wardrobe" viewBox="0 0 32 32">
<path d="M26.485 32h-20.97c-0.207 0-0.375-0.168-0.375-0.375v0-31.25c0-0.207 0.168-0.375 0.375-0.375h20.97c0.207 0 0.375 0.168 0.375 0.375v31.25c0 0.207-0.168 0.375-0.375 0.375zM5.89 31.25h20.22v-30.5h-20.22v30.5z"></path>
<path d="M16 22.878c-0.207 0-0.375-0.12-0.375-0.268v-22.342c0-0.148 0.168-0.268 0.375-0.268s0.375 0.12 0.375 0.268v22.342c0 0.148-0.168 0.268-0.375 0.268zM16 32h-10.485c-0.207 0-0.375-0.168-0.375-0.375v0-4.561c0-0.207 0.168-0.375 0.375-0.375h10.485c0.207 0 0.375 0.168 0.375 0.375v4.561c0 0.207-0.168 0.375-0.375 0.375zM5.89 31.25h9.735v-3.811h-9.735v3.811z"></path>
<path d="M16 27.439h-10.485c-0.207 0-0.375-0.168-0.375-0.375v0-4.561c0-0.207 0.168-0.375 0.375-0.375h10.485c0.207 0 0.375 0.168 0.375 0.375v4.561c0 0.207-0.168 0.375-0.375 0.375zM5.89 26.689h9.734v-3.811h-9.734v3.811z"></path>
<path d="M11.285 25.158h-1.056c-0.202-0.006-0.364-0.172-0.364-0.375s0.162-0.369 0.364-0.375h1.056c0.207 0 0.375 0.168 0.375 0.375s-0.168 0.375-0.375 0.375v0zM13.79 12.273c-0.207 0-0.375-0.168-0.375-0.375v0-0.918c0-0.207 0.168-0.375 0.375-0.375s0.375 0.168 0.375 0.375v0.918c0 0.207-0.168 0.375-0.375 0.375zM18.21 16.834c-0.207 0-0.375-0.168-0.375-0.375v0-0.918c0-0.207 0.168-0.375 0.375-0.375s0.375 0.168 0.375 0.375v0.918c0 0.207-0.168 0.375-0.375 0.375zM11.285 29.72h-1.056c-0.207 0-0.375-0.168-0.375-0.375s0.168-0.375 0.375-0.375h1.056c0.207 0 0.375 0.168 0.375 0.375s-0.168 0.375-0.375 0.375v0z"></path>
</symbol>
<symbol id="commode" viewBox="0 0 32 32">
<path d="M29.934 13.464h-27.869c-0.207 0-0.375-0.168-0.375-0.375v0-8.151c0-0.207 0.168-0.375 0.375-0.375h27.869c0.207 0 0.375 0.168 0.375 0.375v8.151c0 0.207-0.168 0.375-0.375 0.375zM2.441 12.714h27.119v-7.401h-27.119v7.401z"></path>
<path d="M29.934 21.615h-27.869c-0.207 0-0.375-0.168-0.375-0.375v0-8.151c0-0.207 0.168-0.375 0.375-0.375h27.869c0.207 0 0.375 0.168 0.375 0.375v8.151c0 0.207-0.168 0.375-0.375 0.375zM2.441 20.865h27.119v-7.401h-27.119v7.401z"></path>
<path d="M29.934 29.766h-27.869c-0.207 0-0.375-0.168-0.375-0.375v0-8.151c0-0.207 0.168-0.375 0.375-0.375h27.869c0.207 0 0.375 0.168 0.375 0.375v8.151c0 0.207-0.168 0.375-0.375 0.375zM2.441 29.016h27.119v-7.401h-27.119v7.401zM16.701 9.388h-1.403c-0.207 0-0.375-0.168-0.375-0.375s0.168-0.375 0.375-0.375h1.403c0.207 0 0.375 0.168 0.375 0.375s-0.168 0.375-0.375 0.375v0zM16.701 17.539h-1.403c-0.003 0-0.007 0-0.011 0-0.207 0-0.375-0.168-0.375-0.375s0.168-0.375 0.375-0.375c0.004 0 0.008 0 0.011 0h1.402c0.207 0 0.375 0.168 0.375 0.375s-0.168 0.375-0.375 0.375v0z"></path>
<path d="M16.701 25.691h-1.403c-0.207 0-0.375-0.168-0.375-0.375s0.168-0.375 0.375-0.375h1.403c0.207 0 0.375 0.168 0.375 0.375s-0.168 0.375-0.375 0.375v0zM31 5.313h-30c-0.552-0.001-0.999-0.448-1-1v-1.079c0.001-0.552 0.448-0.999 1-1h30c0.552 0.001 0.999 0.448 1 1v1.079c-0.001 0.552-0.448 0.999-1 1h-0zM1 2.984c-0.138 0-0.25 0.112-0.25 0.25v1.079c0 0.138 0.112 0.25 0.25 0.25h30c0.138 0 0.25-0.112 0.25-0.25v-1.079c0-0.138-0.112-0.25-0.25-0.25h-30z"></path>
</symbol>
<symbol id="armchair" viewBox="0 0 32 32">
<path d="M24.287 16.852h-16.574c-0.796-0.001-1.441-0.646-1.442-1.442v-10.408c0.001-0.796 0.646-1.441 1.442-1.442h16.574c0.796 0.001 1.441 0.646 1.442 1.442v10.408c-0.001 0.796-0.646 1.441-1.442 1.442h-0zM7.713 4.31c-0.382 0-0.692 0.31-0.692 0.692v10.408c0.001 0.382 0.31 0.691 0.692 0.692h16.574c0.382-0.001 0.691-0.31 0.692-0.692v-10.408c-0-0.382-0.31-0.692-0.692-0.692h-16.574z"></path>
<path d="M24.287 26.206h-16.574c-0.796-0.001-1.441-0.646-1.442-1.442v-7.22c0.001-0.796 0.646-1.441 1.442-1.442h16.574c0.796 0.001 1.441 0.646 1.442 1.442v7.22c-0.001 0.796-0.646 1.441-1.442 1.442h-0zM7.713 16.851c-0.382 0-0.692 0.31-0.692 0.692v7.22c0 0.382 0.31 0.692 0.692 0.692h16.574c0.382-0.001 0.691-0.31 0.692-0.692v-7.22c-0-0.382-0.31-0.692-0.692-0.692h-16.574z"></path>
<path d="M30.558 26.206h-4.137c-0.796-0.001-1.441-0.646-1.442-1.442v-12.653c0.001-0.796 0.646-1.441 1.442-1.442h4.137c0.796 0.001 1.441 0.646 1.442 1.442v12.654c-0.001 0.796-0.646 1.441-1.442 1.442h-0zM26.421 11.418c-0.382 0-0.692 0.31-0.692 0.692v12.653c0 0.382 0.31 0.692 0.692 0.692h4.137c0.382-0 0.692-0.31 0.692-0.692v-12.653c-0-0.382-0.31-0.692-0.692-0.692h-4.137zM5.579 26.206h-4.137c-0.796-0.001-1.441-0.646-1.442-1.442v-12.654c0.001-0.796 0.646-1.441 1.442-1.442h4.137c0.796 0.001 1.441 0.646 1.442 1.442v12.654c-0.001 0.796-0.646 1.441-1.442 1.442h-0zM1.442 11.418c-0.382 0.001-0.691 0.31-0.692 0.692v12.653c0 0.382 0.31 0.692 0.692 0.692h4.137c0.382-0.001 0.691-0.31 0.692-0.692v-12.653c-0-0.382-0.31-0.692-0.692-0.692h-4.137z"></path>
<path d="M25.354 21.529h-18.708c-0.207 0-0.375-0.168-0.375-0.375s0.168-0.375 0.375-0.375h18.707c0.207 0 0.375 0.168 0.375 0.375s-0.168 0.375-0.375 0.375v0zM3.51 28.44c-0 0-0.001 0-0.001 0-0.631 0-1.16-0.432-1.309-1.017l-0.002-0.009-0.372-1.493c-0.007-0.027-0.011-0.058-0.011-0.091 0-0.207 0.168-0.375 0.375-0.375h2.642c0.207 0 0.375 0.168 0.375 0.375 0 0.032-0.004 0.063-0.012 0.093l0.001-0.003-0.372 1.493c-0.151 0.594-0.68 1.026-1.311 1.026-0.001 0-0.001 0-0.002 0h0zM2.669 26.206l0.256 1.028c0.068 0.265 0.304 0.457 0.585 0.457s0.517-0.192 0.584-0.453l0.001-0.004 0.256-1.028h-1.682zM28.49 28.44c-0.001 0-0.001 0-0.002 0-0.63 0-1.16-0.432-1.309-1.016l-0.002-0.009-0.372-1.494c-0.007-0.027-0.011-0.058-0.011-0.091 0-0.207 0.168-0.375 0.375-0.375h2.642c0.207 0 0.375 0.168 0.375 0.375 0 0.032-0.004 0.063-0.012 0.093l0.001-0.003-0.372 1.494c-0.151 0.593-0.68 1.025-1.311 1.025-0.001 0-0.001 0-0.002 0h0zM27.648 26.206l0.256 1.028c0.068 0.264 0.304 0.456 0.585 0.456s0.517-0.192 0.584-0.452l0.001-0.004 0.256-1.028h-1.682z"></path>
</symbol>
<symbol id="bedroom" viewBox="0 0 32 32">
<path d="M27.099 10.803h-22.198c-0.207 0-0.375-0.168-0.375-0.375v0-7.789c0-0.207 0.168-0.375 0.375-0.375h22.198c0.207 0 0.375 0.168 0.375 0.375v7.789c0 0.207-0.168 0.375-0.375 0.375zM5.276 10.053h21.448v-7.039h-21.448v7.039z"></path>
<path d="M25.378 10.803h-18.756c-0.207 0-0.375-0.168-0.375-0.375v0-6.068c0-0.207 0.168-0.375 0.375-0.375h18.756c0.207 0 0.375 0.168 0.375 0.375v6.068c0 0.207-0.168 0.375-0.375 0.375zM6.997 10.053h18.006v-5.318h-18.006v5.318z"></path>
<path d="M14.869 10.803h-7.116c-0.831-0.001-1.505-0.675-1.506-1.506v-3.806c0.001-0.831 0.675-1.505 1.506-1.506h7.117c0.831 0.001 1.505 0.675 1.506 1.506v3.806c-0.001 0.831-0.675 1.505-1.506 1.506h-0zM7.753 4.735c-0.417 0.001-0.755 0.339-0.756 0.756v3.806c0.001 0.417 0.339 0.755 0.756 0.756h7.117c0.417-0.001 0.755-0.339 0.756-0.756v-3.806c-0-0.417-0.338-0.756-0.756-0.756h-7.117z"></path>
<path d="M24.247 10.803h-7.116c-0.831-0.001-1.505-0.675-1.506-1.506v-3.806c0.001-0.831 0.675-1.505 1.506-1.506h7.116c0.831 0.001 1.505 0.675 1.506 1.506v3.806c-0.001 0.831-0.675 1.505-1.506 1.506h-0zM17.131 4.735c-0.417 0.001-0.755 0.339-0.756 0.756v3.806c0.001 0.417 0.339 0.755 0.756 0.756h7.116c0.417-0 0.756-0.338 0.756-0.756v-3.806c-0-0.417-0.339-0.756-0.756-0.756h-7.116z"></path>
<path d="M27.371 29.736h-22.741c-0.831-0.001-1.505-0.675-1.506-1.506v-16.671c0.001-0.831 0.675-1.505 1.506-1.506h22.741c0.831 0.001 1.505 0.675 1.506 1.506v16.671c-0.001 0.831-0.675 1.505-1.506 1.506h-0zM4.629 10.803c-0.417 0-0.756 0.338-0.756 0.756v16.671c0.001 0.417 0.339 0.755 0.756 0.756h22.741c0.417-0.001 0.755-0.339 0.756-0.756v-16.671c-0.001-0.417-0.339-0.755-0.756-0.756h-22.741zM27.515 3.014h-23.030c-0.752-0.001-1.361-0.61-1.362-1.361v-0.291c0.001-0.752 0.61-1.361 1.362-1.362h23.030c0.752 0.001 1.361 0.61 1.362 1.361v0.291c-0.001 0.752-0.61 1.361-1.361 1.362h-0zM4.485 0.75c-0.338 0-0.611 0.274-0.612 0.611v0.291c0 0.338 0.274 0.611 0.612 0.612h23.030c0.338-0 0.611-0.274 0.612-0.611v-0.291c-0.001-0.338-0.274-0.611-0.612-0.612h-23.030z"></path>
<path d="M27.515 32h-23.030c-0.752-0.001-1.361-0.61-1.362-1.361v-0.291c0.001-0.752 0.61-1.361 1.362-1.362h23.030c0.752 0.001 1.361 0.61 1.362 1.361v0.291c-0.001 0.752-0.61 1.361-1.361 1.362h-0zM4.485 29.736c-0.338 0-0.611 0.274-0.612 0.611v0.291c0 0.338 0.274 0.611 0.612 0.612h23.030c0.338-0 0.611-0.274 0.612-0.611v-0.291c-0.001-0.338-0.274-0.611-0.612-0.612h-23.030z"></path>
</symbol>
<symbol id="couch" viewBox="0 0 32 32">
<path d="M14.933 27.898h-9.568c-0.796-0.001-1.442-0.646-1.442-1.442v-3.717c0.001-0.796 0.646-1.441 1.442-1.442h9.568c0.796 0.001 1.441 0.646 1.442 1.442v3.717c-0.001 0.796-0.646 1.441-1.442 1.442h-0zM5.365 22.046c-0.382 0-0.692 0.31-0.692 0.692v3.717c0 0.382 0.31 0.692 0.692 0.692h9.568c0.382-0 0.692-0.31 0.692-0.692v-3.717c-0-0.382-0.31-0.692-0.692-0.692h-9.568z"></path>
<path d="M3.23 27.898h-1.788c-0.796-0.001-1.441-0.646-1.442-1.442v-7.116c0.001-0.796 0.646-1.441 1.442-1.442h1.789c0.796 0.001 1.441 0.646 1.442 1.442v7.116c-0.001 0.796-0.646 1.441-1.442 1.442h-0zM1.442 18.647c-0.382 0.001-0.691 0.31-0.692 0.692v7.116c0.001 0.382 0.31 0.691 0.692 0.692h1.789c0.382-0.001 0.691-0.31 0.692-0.692v-7.116c-0-0.382-0.31-0.692-0.692-0.692h-1.788z"></path>
<path d="M27.702 24.972h-23.405c-0.207 0-0.375-0.168-0.375-0.375s0.168-0.375 0.375-0.375h23.405c0.207 0 0.375 0.168 0.375 0.375s-0.168 0.375-0.375 0.375v0zM14.933 22.046h-9.568c-0.796-0.001-1.441-0.646-1.442-1.442v-5.711c0.001-0.796 0.646-1.441 1.442-1.442h9.568c0.796 0.001 1.442 0.646 1.442 1.442v5.711c-0.001 0.796-0.646 1.441-1.442 1.442h-0zM5.365 14.201c-0.382 0-0.692 0.31-0.692 0.692v5.711c0 0.382 0.31 0.692 0.692 0.692h9.568c0.382-0 0.692-0.31 0.692-0.692v-5.711c-0-0.382-0.31-0.692-0.692-0.692h-9.568z"></path>
<path d="M26.635 22.046h-9.568c-0.796-0.001-1.441-0.646-1.442-1.442v-5.711c0.001-0.796 0.646-1.441 1.442-1.442h9.568c0.796 0.001 1.442 0.646 1.442 1.442v5.711c-0.001 0.796-0.646 1.441-1.442 1.442h-0zM17.067 14.201c-0.382 0-0.692 0.31-0.692 0.692v5.711c0 0.382 0.31 0.692 0.692 0.692h9.568c0.382-0 0.692-0.31 0.692-0.692v-5.711c-0-0.382-0.31-0.692-0.692-0.692h-9.568z"></path>
<path d="M26.635 27.898h-9.568c-0.796-0.001-1.441-0.646-1.442-1.442v-3.717c0.001-0.796 0.646-1.441 1.442-1.442h9.568c0.796 0.001 1.441 0.646 1.442 1.442v3.717c-0.001 0.796-0.646 1.441-1.442 1.442h-0zM17.067 22.046c-0.382 0-0.692 0.31-0.692 0.692v3.717c0 0.382 0.31 0.692 0.692 0.692h9.568c0.382-0 0.692-0.31 0.692-0.692v-3.717c-0-0.382-0.31-0.692-0.692-0.692h-9.568z"></path>
<path d="M30.558 27.898h-1.788c-0.796-0.001-1.441-0.646-1.442-1.442v-7.116c0.001-0.796 0.646-1.442 1.442-1.442h1.788c0.796 0.001 1.441 0.646 1.442 1.442v7.116c-0.001 0.796-0.646 1.441-1.442 1.442h-0zM28.77 18.647c-0.382 0-0.692 0.31-0.692 0.692v7.116c0.001 0.382 0.31 0.691 0.692 0.692h1.789c0.382-0.001 0.691-0.31 0.692-0.692v-7.116c-0-0.382-0.31-0.692-0.692-0.692h-1.788zM16.877 22.046h-1.754c-0.207 0-0.375-0.168-0.375-0.375s0.168-0.375 0.375-0.375h1.754c0.207 0 0.375 0.168 0.375 0.375s-0.168 0.375-0.375 0.375v0zM22.864 12.364h-13.728c-0.207 0-0.375-0.168-0.375-0.375v0-8.909c0-0.207 0.168-0.375 0.375-0.375h13.728c0.207 0 0.375 0.168 0.375 0.375v8.909c0 0.207-0.168 0.375-0.375 0.375zM9.511 11.614h12.979v-8.159h-12.979v8.159z"></path>
<path d="M21.615 11.115h-11.23c-0.207 0-0.375-0.168-0.375-0.375v0-6.411c0-0.207 0.168-0.375 0.375-0.375h11.23c0.207 0 0.375 0.168 0.375 0.375v6.411c0 0.207-0.168 0.375-0.375 0.375zM10.76 10.365h10.48v-5.661h-10.48v5.661z"></path>
<path d="M11.729 9.741c-0 0-0 0-0 0-0.207 0-0.375-0.168-0.375-0.375 0-0.103 0.042-0.197 0.11-0.265v0l1.929-1.929c0.068-0.068 0.162-0.11 0.265-0.11s0.197 0.042 0.265 0.11l1.17 1.17c0.064 0.067 0.104 0.158 0.104 0.259 0 0.207-0.168 0.375-0.375 0.375-0.1 0-0.192-0.040-0.259-0.104l0 0-0.905-0.905-1.663 1.663c-0.070 0.070-0.166 0.11-0.265 0.11z"></path>
<path d="M20.271 9.722c-0.099 0-0.195-0.039-0.265-0.11l-1.369-1.37c-0.514-0.513-1.027-1.027-1.54-1.54l-0.468-0.468-2.087 2.087c-0.068 0.068-0.162 0.11-0.265 0.11-0.207 0-0.375-0.168-0.375-0.375 0-0.104 0.042-0.197 0.11-0.265l2.352-2.352c0.068-0.068 0.162-0.11 0.265-0.11s0.198 0.042 0.266 0.11v0c0.166 0.166 0.326 0.326 0.486 0.486l0.005 0.005 0.241 0.241c0.513 0.514 1.026 1.027 1.54 1.54 0.456 0.457 0.912 0.913 1.369 1.37 0.068 0.068 0.11 0.162 0.11 0.265 0 0.207-0.168 0.375-0.375 0.375v0z"></path>
<path d="M18.902 8.352c-0.099 0-0.195-0.039-0.265-0.11-0.514-0.513-1.028-1.027-1.54-1.54-0.068-0.068-0.11-0.162-0.11-0.265 0-0.051 0.010-0.1 0.029-0.145l-0.001 0.002c0.239-0.571 0.793-0.966 1.44-0.966 0.859 0 1.556 0.697 1.556 1.556 0 0.646-0.394 1.201-0.955 1.436l-0.010 0.004c-0.045 0.019-0.093 0.028-0.142 0.028zM17.83 6.375c0.378 0.378 0.756 0.756 1.134 1.134 0.183-0.149 0.299-0.374 0.299-0.626 0-0.445-0.361-0.806-0.806-0.806-0.252 0-0.477 0.116-0.625 0.297l-0.001 0.001zM29.664 29.295c-0 0-0.001 0-0.001 0-0.46 0-0.846-0.315-0.955-0.741l-0.001-0.007-0.233-0.934c-0.007-0.027-0.011-0.058-0.011-0.091 0-0.207 0.168-0.375 0.375-0.375 0 0 0 0 0 0h1.652c0 0 0 0 0 0 0.207 0 0.375 0.168 0.375 0.375 0 0.032-0.004 0.064-0.012 0.093l0.001-0.003-0.233 0.934c-0.11 0.433-0.496 0.748-0.956 0.748-0 0-0.001 0-0.002 0h0zM29.317 27.897l0.117 0.468c0.027 0.103 0.119 0.178 0.229 0.178s0.202-0.075 0.229-0.177l0-0.002 0.117-0.468h-0.693zM2.336 29.295c-0 0-0.001 0-0.001 0-0.46 0-0.846-0.315-0.955-0.741l-0.001-0.007-0.233-0.934c-0.007-0.027-0.011-0.058-0.011-0.091 0-0.207 0.168-0.375 0.375-0.375 0 0 0 0 0 0h1.652c0 0 0 0 0 0 0.207 0 0.375 0.168 0.375 0.375 0 0.032-0.004 0.064-0.012 0.093l0.001-0.003-0.233 0.934c-0.11 0.433-0.496 0.748-0.956 0.748-0.001 0-0.001 0-0.002 0h0zM1.99 27.897l0.117 0.468c0.027 0.103 0.119 0.178 0.229 0.178s0.202-0.075 0.229-0.177l0-0.002 0.117-0.468h-0.692z"></path>
</symbol>

</defs>
</svg>
